{
  "accessors": [
    {
      "bufferView": 2,
      "componentType": 5126,
      "count": 2310,
      "max": [
        0.12287481874227524,
        0.010210596956312656,
        0.025837888941168785
      ],
      "min": [
        -0.09257298707962036,
        -0.010276274755597115,
        -0.05673344433307648
      ],
      "type": "VEC3"
    },
    {
      "bufferView": 2,
      "byteOffset": 27720,
      "componentType": 5126,
      "count": 2310,
      "max": [
        1.0,
        1.0,
        1.0
      ],
      "min": [
        -1.0,
        -1.0,
        -1.0
      ],
      "type": "VEC3"
    },
    {
      "bufferView": 1,
      "componentType": 5126,
      "count": 2310,
      "max": [
        1.0000001192092896,
        1.0000001192092896
      ],
      "min": [
        -0.01920049451291561,
        0.0
      ],
      "type": "VEC2"
    },
    {
      "bufferView": 0,
      "componentType": 5125,
      "count": 6762,
      "type": "SCALAR"
    },
    {
      "bufferView": 2,
      "byteOffset": 55440,
      "componentType": 5126,
      "count": 1697,
      "max": [
        0.032667405903339386,
        0.010210596956312656,
        0.030000224709510803
      ],
      "min": [
        -0.08597782999277115,
        -0.010276274755597115,
        -0.054188020527362823
      ],
      "type": "VEC3"
    },
    {
      "bufferView": 2,
      "byteOffset": 75804,
      "componentType": 5126,
      "count": 1697,
      "max": [
        1.0,
        1.0,
        1.0
      ],
      "min": [
        -1.0,
        -1.0,
        -1.0
      ],
      "type": "VEC3"
    },
    {
      "bufferView": 1,
      "byteOffset": 18480,
      "componentType": 5126,
      "count": 1697,
      "max": [
        1.0000001192092896,
        1.0000001192092896
      ],
      "min": [
        -7.450581307466564e-08,
        0.0
      ],
      "type": "VEC2"
    },
    {
      "bufferView": 0,
      "byteOffset": 27048,
      "componentType": 5125,
      "count": 5076,
      "type": "SCALAR"
    },
    {
      "bufferView": 2,
      "byteOffset": 96168,
      "componentType": 5126,
      "count": 594,
      "max": [
        0.017302095890045166,
        0.00915480125695467,
        0.028336405754089355
      ],
      "min": [
        -0.08597782999277115,
        -0.00915480125695467,
        -0.04273087903857231
      ],
      "type": "VEC3"
    },
    {
      "bufferView": 2,
      "byteOffset": 103296,
      "componentType": 5126,
      "count": 594,
      "max": [
        1.0,
        1.0,
        1.0
      ],
      "min": [
        -1.0,
        -1.0,
        -0.9356013536453247
      ],
      "type": "VEC3"
    },
    {
      "bufferView": 1,
      "byteOffset": 32056,
      "componentType": 5126,
      "count": 594,
      "max": [
        1.0000001192092896,
        1.0000001192092896
      ],
      "min": [
        -0.01920049451291561,
        0.0
      ],
      "type": "VEC2"
    },
    {
      "bufferView": 0,
      "byteOffset": 47352,
      "componentType": 5125,
      "count": 1518,
      "type": "SCALAR"
    },
    {
      "bufferView": 2,
      "byteOffset": 110424,
      "componentType": 5126,
      "count": 517,
      "max": [
        0.11265064775943756,
        0.010210595093667507,
        0.025837883353233337
      ],
      "min": [
        -0.0374838262796402,
        -0.010276274755597115,
        -0.019172126427292824
      ],
      "type": "VEC3"
    },
    {
      "bufferView": 2,
      "byteOffset": 116628,
      "componentType": 5126,
      "count": 517,
      "max": [
        1.0,
        1.0,
        1.0
      ],
      "min": [
        -1.0,
        -1.0,
        -1.0
      ],
      "type": "VEC3"
    },
    {
      "bufferView": 1,
      "byteOffset": 36808,
      "componentType": 5126,
      "count": 517,
      "max": [
        1.0000001192092896,
        1.0000001192092896
      ],
      "min": [
        -7.450581307466564e-08,
        0.0
      ],
      "type": "VEC2"
    },
    {
      "bufferView": 0,
      "byteOffset": 53424,
      "componentType": 5125,
      "count": 1452,
      "type": "SCALAR"
    },
    {
      "bufferView": 2,
      "byteOffset": 122832,
      "componentType": 5126,
      "count": 5186,
      "max": [
        0.12307482212781906,
        0.010410594753921032,
        0.030198702588677406
      ],
      "min": [
        -0.09273938834667206,
        -0.01047627441585064,
        -0.05693344399333
      ],
      "type": "VEC3"
    },
    {
      "bufferView": 2,
      "byteOffset": 185064,
      "componentType": 5126,
      "count": 5186,
      "max": [
        1.0,
        1.0,
        1.0
      ],
      "min": [
        -1.0,
        -1.0,
        -1.0
      ],
      "type": "VEC3"
    },
    {
      "bufferView": 1,
      "byteOffset": 40944,
      "componentType": 5126,
      "count": 5186,
      "max": [
        1.0000001192092896,
        1.0000001192092896
      ],
      "min": [
        -0.01920049451291561,
        0.0
      ],
      "type": "VEC2"
    },
    {
      "bufferView": 0,
      "byteOffset": 59232,
      "componentType": 5125,
      "count": 14808,
      "type": "SCALAR"
    }
  ],
  "asset": {
    "extras": {
      "author": "Silkwo猫 (https://sketchfab.com/silkwoah)",
      "license": "SKETCHFAB Standard (https://sketchfab.com/licenses)",
      "source": "https://sketchfab.com/3d-models/hk-p30-demons-roar-l-blue-archive-9c5d0d93c04b4a6dbe4b2325b4b9e8c9",
      "title": "H&K P30\t\"Demon's Roar\" l Blue Archive"
    },
    "generator": "Sketchfab-16.85.0",
    "version": "2.0"
  },
  "bufferViews": [
    {
      "buffer": 0,
      "byteLength": 118464,
      "name": "floatBufferViews",
      "target": 34963
    },
    {
      "buffer": 0,
      "byteLength": 82432,
      "byteOffset": 118464,
      "byteStride": 8,
      "name": "floatBufferViews",
      "target": 34962
    },
    {
      "buffer": 0,
      "byteLength": 247296,
      "byteOffset": 200896,
      "byteStride": 12,
      "name": "floatBufferViews",
      "target": 34962
    }
  ],
  "buffers": [
    {
      "byteLength": 448192,
      "uri": "scene.bin"
    }
  ],
  "materials": [
    {
      "doubleSided": true,
      "name": "Black",
      "pbrMetallicRoughness": {
        "baseColorFactor": [
          0.0343396,
          0.0343398,
          0.0343398,
          1.0
        ],
        "metallicFactor": 0.0
      }
    },
    {
      "doubleSided": true,
      "name": "White",
      "pbrMetallicRoughness": {
        "baseColorFactor": [
          0.791292,
          0.814847,
          0.83077,
          1.0
        ],
        "metallicFactor": 0.0
      }
    },
    {
      "doubleSided": true,
      "name": "Gray",
      "pbrMetallicRoughness": {
        "baseColorFactor": [
          0.356398,
          0.381326,
          0.417885,
          1.0
        ],
        "metallicFactor": 0.0
      }
    },
    {
      "doubleSided": true,
      "name": "material",
      "pbrMetallicRoughness": {
        "baseColorFactor": [
          0.270496,
          0.000303507,
          0.00913406,
          1.0
        ],
        "metallicFactor": 0.0
      }
    },
    {
      "name": "Outliner",
      "pbrMetallicRoughness": {
        "baseColorFactor": [
          0.0,
          0.0,
          0.0,
          1.0
        ],
        "metallicFactor": 0.0,
        "roughnessFactor": 0.8040408205773457
      }
    }
  ],
  "meshes": [
    {
      "name": "Pistol_Black_0",
      "primitives": [
        {
          "attributes": {
            "NORMAL": 1,
            "POSITION": 0,
            "TEXCOORD_0": 2
          },
          "indices": 3,
          "material": 0,
          "mode": 4
        }
      ]
    },
    {
      "name": "Pistol_White_0",
      "primitives": [
        {
          "attributes": {
            "NORMAL": 5,
            "POSITION": 4,
            "TEXCOORD_0": 6
          },
          "indices": 7,
          "material": 1,
          "mode": 4
        }
      ]
    },
    {
      "name": "Pistol_Gray_0",
      "primitives": [
        {
          "attributes": {
            "NORMAL": 9,
            "POSITION": 8,
            "TEXCOORD_0": 10
          },
          "indices": 11,
          "material": 2,
          "mode": 4
        }
      ]
    },
    {
      "name": "Pistol_Red_0",
      "primitives": [
        {
          "attributes": {
            "NORMAL": 13,
            "POSITION": 12,
            "TEXCOORD_0": 14
          },
          "indices": 15,
          "material": 3,
          "mode": 4
        }
      ]
    },
    {
      "name": "Pistol_Outliner_0",
      "primitives": [
        {
          "attributes": {
            "NORMAL": 17,
            "POSITION": 16,
            "TEXCOORD_0": 18
          },
          "indices": 19,
          "material": 4,
          "mode": 4
        }
      ]
    }
  ],
  "nodes": [
    {
      "children": [
        1
      ],
      "matrix": [
        1.0,
        0.0,
        0.0,
        0.0,
        0.0,
        2.220446049250313e-16,
        -1.0,
        0.0,
        0.0,
        1.0,
        2.220446049250313e-16,
        0.0,
        0.0,
        0.0,
        0.0,
        1.0
      ],
      "name": "Sketchfab_model"
    },
    {
      "children": [
        2
      ],
      "matrix": [
        0.009999999776482582,
        0.0,
        0.0,
        0.0,
        0.0,
        0.0,
        0.009999999776482582,
        0.0,
        0.0,
        -0.009999999776482582,
        0.0,
        0.0,
        0.0,
        0.0,
        0.0,
        1.0
      ],
      "name": "f2a7de28ec844e6b91c60572d73c9e78.fbx"
    },
    {
      "children": [
        3
      ],
      "name": "RootNode"
    },
    {
      "children": [
        4,
        5,
        6,
        7,
        8
      ],
      "matrix": [
        100.0,
        0.0,
        0.0,
        0.0,
        0.0,
        -1.629206793918314e-05,
        -99.99999999999868,
        0.0,
        0.0,
        99.99999999999868,
        -1.629206793918314e-05,
        0.0,
        0.0,
        0.0,
        -6.314334655144194e-07,
        1.0
      ],
      "name": "Pistol"
    },
    {
      "mesh": 0,
      "name": "Pistol_Black_0"
    },
    {
      "mesh": 1,
      "name": "Pistol_White_0"
    },
    {
      "mesh": 2,
      "name": "Pistol_Gray_0"
    },
    {
      "mesh": 3,
      "name": "Pistol_Red_0"
    },
    {
      "mesh": 4,
      "name": "Pistol_Outliner_0"
    }
  ],
  "scene": 0,
  "scenes": [
    {
      "name": "Sketchfab_Scene",
      "nodes": [
        0
      ]
    }
  ]
}
